# xmcd
#
# Track frame offsets: 
#        150
#        13217
#        28230
#        38967
#        51130
#        67125
#        86292
#        103845
#        118030
#        133730
#        150290
#        167150
#        187355
#        206852
#        223365
#        239252
#        256707
#        272767
#        291730
#        303577
#        316942
#        330610
#
# Disc length: 4588 seconds
#
# Revision: 9
# Processed by: cddbd v1.5.2PL0 Copyright (c) Steve Scherf et al.
# Submitted via: ExactAudioCopyFreeDBPlugin 1.0
#
DISCID=5b11ea16
DTITLE=Various Artist - The Complete Stax-Volt Singles, 1959-1975
DYEAR=1993
DGENRE=Soul
TTITLE0=Ollie and The Nightingales - Bracing Myself for the Fall
TTITLE1=William Bell and Carla Thomas - All I Have to Do is Dream
TTITLE2=Jeanne and The Darlings - Singing About Love
TTITLE3=Chris and Shack - Goodies
TTITLE4=Barbara Lewis - Just the Way You Are Today
TTITLE5=Little Sonny - The Creeper Returns
TTITLE6=Carla Thomas - Guide Me Well
TTITLE7=The Staple Singers - Give a Damn
TTITLE8=Johnnie Taylor - Steal Away
TTITLE9=Margie Joseph - Your Sweet Lovin'
TTITLE10=Jones and Blumenberg - I Forgot to Remember
TTITLE11=David Porter - Can't See You When I Want To
TTITLE12=Carla Thomas - Never Be True
TTITLE13=Albert King - Can't You See What You're Doing to Me
TTITLE14=Rufus Thomas - Sixty Minute Man (Part 2)
TTITLE15=Rufus Thomas - The Preacher and the Bear
TTITLE16=Booker T. and The M.G.'s - Something
TTITLE17=The Mad Lads - Seeing is Believin'
TTITLE18=Roz Ryan - You're My Only Temptation
TTITLE19=Paul Thompson - What I Don't Know Won't Hurt Me
TTITLE20=Branding Iron - Right, Tight and Out of Sight
TTITLE21=John KaSandra - (What's Under) The Natural Do
EXTD=YEAR: 1993
EXTT0=
EXTT1=
EXTT2=
EXTT3=
EXTT4=
EXTT5=
EXTT6=
EXTT7=
EXTT8=
EXTT9=
EXTT10=
EXTT11=
EXTT12=
EXTT13=
EXTT14=
EXTT15=
EXTT16=
EXTT17=
EXTT18=
EXTT19=
EXTT20=
EXTT21=
PLAYORDER=
